<svg height="512pt" preserveAspectRatio="xMidYMid meet" viewBox="0 0 512 512" width="512pt" xmlns="http://www.w3.org/2000/svg"><g fill="#3470ff" transform="matrix(.003922 0 0 -.003922 0 512)"><path d="m55080 71129c-6995-396-9644-1022-15037-3553-2319-1089-4964-2328-5879-2753-2134-993-3659-1306-7899-1621-4453-332-4152-100-4280-3294-59-1463-219-2797-355-2965-1194-1463-1095-5822 197-8656 989-2171 1282-2316 4948-2435l2423-79 61 892c525 7562 5403 11275 11736 8934 3700-1367 5040-3409 5756-8769l311-2332 1523-146c837-80 9211-106 18608-59 9396 48 17970 85 19052 82 2417-6 2460 51 2509 3337 167 11064 15564 11597 16495 570 72-864 12-1916-135-2338-487-1397-27-1647 2999-1629 3512 20 3450-52 3450 3995v3157l-1530 1504c-842 828-2033 2105-2647 2840-3273 3915-7375 5258-16810 5504-3302 86-5274 249-5992 495-1049 358-4847 2722-5142 3199-82 133-1036 726-2119 1317-1084 590-2716 1511-3628 2045-2226 1304-5747 2190-9980 2512-1858 142-3729 302-4158 356s-2443 5-4477-110zm10200-3014c491-143 1696-440 2678-659 2671-596 6686-2380 7301-3244 282-396 760-724 1067-732 784-21 2750-1042 3083-1600 237-398 71-652-1124-1718-1723-1537-2427-1657-2219-380 219 1354-17 1419-5592 1548-2787 64-5865 190-6840 280-976 89-2984 195-4463 235-12487 335-19664 1787-16285 3294 2343 1045 8441 2675 10042 2685 569 3 1257 184 1530 401 572 457 9177 370 10822-110zm-154-19739c8784-90 9678-183 9198-959-145-235-1024-272-3535-148-1838 90-6004 173-9257 185-6172 21-6744 123-6357 1131 116 303 267 336 635 139 288-154 4029-294 9316-348z"/><path d="m94243 52170c-2037-1130-2843-2090-3200-3810-550-2650 1239-6270 3307-6689 351-71 1052-239 1560-373 1918-506 4519 288 5507 1681 250 354 771 1057 1157 1562 1640 2150 319 5793-2614 7211-3106 1501-3687 1543-5717 418z"/><path d="m34794 51888c-2823-1436-3591-3157-2790-6249 827-3192 2582-4430 6218-4387 4059 48 6320 2370 6100 6267-220 3893-5608 6364-9528 4369z"/></g></svg>